<svg width="20" height="20" viewBox="0 0 20 20" fill="none" xmlns="http://www.w3.org/2000/svg">
<path d="M13.6057 11.1359C12.8932 11.1359 12.219 10.9784 11.6132 10.6976L8.70068 11.3159L9.30985 8.39758C9.02735 7.79008 8.86902 7.11258 8.86902 6.39841C8.86902 3.78591 10.9874 1.66675 13.6015 1.66675C16.2157 1.66675 18.3332 3.78591 18.3332 6.39841C18.3332 9.01091 16.214 11.1301 13.6015 11.1301" stroke="#2468F6" stroke-linecap="round" stroke-linejoin="round"/>
<path fill-rule="evenodd" clip-rule="evenodd" d="M12.6668 15.309L11.8585 14.5007C11.4543 14.0965 10.8002 14.0965 10.3968 14.5007L9.76183 15.1357C9.62016 15.2774 9.40516 15.3249 9.22183 15.2449C8.30099 14.8415 7.39183 14.2307 6.581 13.4199C5.7735 12.6124 5.16433 11.7074 4.761 10.7899C4.67683 10.6007 4.726 10.3782 4.87266 10.2307L5.44183 9.66153C5.90433 9.19903 5.90433 8.54569 5.50016 8.14153L4.691 7.33319C4.15266 6.79486 3.281 6.79486 2.74266 7.33319L2.2935 7.78236C1.78266 8.29319 1.57016 9.02986 1.70766 9.75986C2.04766 11.5599 3.09433 13.5315 4.781 15.219C6.46766 16.9065 8.43933 17.9524 10.2402 18.2924C10.9702 18.4299 11.7068 18.2174 12.2177 17.7065L12.6668 17.2582C13.2043 16.7199 13.2043 15.8474 12.6668 15.309Z" stroke="#2468F6" stroke-linecap="round" stroke-linejoin="round"/>
<path d="M11.3936 6.46216C11.4099 6.47843 11.4099 6.50481 11.3936 6.52108C11.3774 6.53735 11.351 6.53735 11.3347 6.52108C11.3184 6.50481 11.3184 6.47843 11.3347 6.46216C11.351 6.44588 11.3774 6.44588 11.3936 6.46216" stroke="#2468F6" stroke-linecap="round" stroke-linejoin="round"/>
<path d="M13.5655 6.46216C13.5818 6.47843 13.5818 6.50481 13.5655 6.52108C13.5492 6.53735 13.5229 6.53735 13.5066 6.52108C13.4903 6.50481 13.4903 6.47843 13.5066 6.46216C13.5229 6.44588 13.5492 6.44588 13.5655 6.46216" stroke="#2468F6" stroke-linecap="round" stroke-linejoin="round"/>
<path d="M15.7362 6.46216C15.7524 6.47843 15.7524 6.50481 15.7362 6.52108C15.7199 6.53735 15.6935 6.53735 15.6772 6.52108C15.661 6.50481 15.661 6.47843 15.6772 6.46216C15.6935 6.44588 15.7199 6.44588 15.7362 6.46216" stroke="#2468F6" stroke-linecap="round" stroke-linejoin="round"/>
</svg>
