<svg width="20" height="20" viewBox="0 0 20 20" fill="none" xmlns="http://www.w3.org/2000/svg">
<path d="M8.26193 8.48254C8.9128 9.13341 8.9128 10.1887 8.26193 10.8396C7.61105 11.4904 6.55578 11.4904 5.9049 10.8396C5.25403 10.1887 5.25403 9.13342 5.9049 8.48254C6.55578 7.83167 7.61105 7.83167 8.26193 8.48254" stroke="#2468F6" stroke-linecap="round" stroke-linejoin="round"/>
<path d="M12.5 9.16667H15.8333" stroke="#2468F6" stroke-linecap="round" stroke-linejoin="round"/>
<path d="M15 12.0834H12.5" stroke="#2468F6" stroke-linecap="round" stroke-linejoin="round"/>
<path d="M10.0001 15.0342C9.85841 14.6784 9.63925 14.3584 9.35758 14.0976V14.0976C8.88175 13.6567 8.25675 13.4109 7.60758 13.4109H6.55925C5.91008 13.4109 5.28508 13.6559 4.80925 14.0976V14.0976C4.52758 14.3576 4.30841 14.6776 4.16675 15.0342" stroke="#2468F6" stroke-linecap="round" stroke-linejoin="round"/>
<path fill-rule="evenodd" clip-rule="evenodd" d="M10.8335 5.83341H9.16683C8.70683 5.83341 8.3335 5.46008 8.3335 5.00008V2.50008C8.3335 2.04008 8.70683 1.66675 9.16683 1.66675H10.8335C11.2935 1.66675 11.6668 2.04008 11.6668 2.50008V5.00008C11.6668 5.46008 11.2935 5.83341 10.8335 5.83341Z" stroke="#2468F6" stroke-linecap="round" stroke-linejoin="round"/>
<path d="M8.33341 4.16675H3.36758C2.42841 4.16675 1.66675 4.92841 1.66675 5.86758V15.8334C1.66675 16.7542 2.41258 17.5001 3.33341 17.5001H16.6667C17.5876 17.5001 18.3334 16.7542 18.3334 15.8334V5.83341C18.3334 4.91258 17.5876 4.16675 16.6667 4.16675H11.6667" stroke="#2468F6" stroke-linecap="round" stroke-linejoin="round"/>
</svg>
